<svg version="1.1" id="Layer_1" xmlns="http://www.w3.org/2000/svg" xmlns:xlink="http://www.w3.org/1999/xlink" x="0px" y="0px"
	 width="100%" viewBox="0 0 1024 1024" enable-background="new 0 0 1024 1024" xml:space="preserve">
<path fill="#000000" opacity="1.000000" stroke="none" 
	d="
M654.000000,1025.000000 
	C436.000000,1025.000000 218.500000,1025.000000 1.000000,1025.000000 
	C1.000000,683.666687 1.000000,342.333344 1.000000,1.000000 
	C342.333344,1.000000 683.666687,1.000000 1025.000000,1.000000 
	C1025.000000,342.333344 1025.000000,683.666687 1025.000000,1025.000000 
	C901.500000,1025.000000 778.000000,1025.000000 654.000000,1025.000000 
M474.471619,711.918396 
	C461.154480,711.622009 447.832397,711.451538 434.524384,710.924438 
	C431.821533,710.817383 428.948822,709.768250 426.550140,708.439148 
	C422.957703,706.448669 422.096741,701.732117 423.874115,697.293823 
	C425.438477,693.387756 427.833588,693.139709 432.048615,693.492004 
	C441.231781,694.259399 450.781830,694.803833 459.750305,693.128601 
	C480.085693,689.330322 492.522400,676.631470 494.370789,658.275574 
	C495.162964,650.408691 493.546204,642.299194 492.990234,633.783081 
	C498.312988,633.783081 504.855286,633.783081 511.555481,633.783081 
	C511.555481,624.121521 511.555481,615.031555 511.555481,605.349670 
	C509.731354,605.349670 508.114960,605.349670 506.498596,605.349670 
	C493.498688,605.350159 480.498566,605.386719 467.499054,605.315063 
	C465.364441,605.303284 463.173401,605.043945 461.108917,604.510376 
	C448.542664,601.262939 435.993927,601.395630 423.591797,605.026062 
	C393.903290,613.716553 380.272583,644.474670 394.865692,670.261353 
	C397.824066,675.488953 402.387848,679.807983 406.320251,684.680603 
	C399.135895,690.414917 393.088287,697.391174 392.277344,707.432983 
	C391.446136,717.725464 395.910278,725.693787 404.325317,731.753235 
	C401.198883,734.025696 398.382629,735.795044 395.884308,737.935486 
	C383.412231,748.620667 381.672394,766.156250 392.876343,777.227661 
	C397.540466,781.836548 403.894562,785.702820 410.172913,787.541565 
	C436.118866,795.140503 461.883972,793.703674 486.705322,782.698975 
	C497.970978,777.704285 506.901764,769.761719 511.431671,757.829041 
	C518.911255,738.126526 510.257568,720.580139 490.072998,714.783752 
	C485.303375,713.414062 480.294800,712.876587 474.471619,711.918396 
M193.836548,566.710999 
	C189.556549,566.079224 185.283203,564.955505 180.995468,564.897644 
	C157.678360,564.583008 134.357727,564.529297 111.038162,564.410339 
	C110.758667,564.408936 110.477524,564.731812 110.203964,564.907104 
	C110.203964,621.985657 110.203964,679.064270 110.203964,736.221436 
	C123.230019,736.221436 135.965591,736.221436 148.958664,736.221436 
	C148.958664,726.388794 148.958664,716.899719 148.958664,707.410645 
	C148.958664,697.801392 148.958664,688.192200 148.958664,678.141541 
	C155.786697,678.141541 162.087189,678.314514 168.373688,678.092407 
	C174.517868,677.875244 180.704376,677.639893 186.774429,676.747009 
	C217.444611,672.235718 235.838913,652.739868 237.285416,622.949585 
	C238.195618,604.204285 233.785355,587.163269 217.047821,576.308411 
	C210.358047,571.969910 202.173828,569.935669 193.836548,566.710999 
M135.491989,420.164185 
	C139.904510,420.164185 144.317017,420.164185 149.152313,420.164185 
	C149.152313,400.347412 149.152313,381.276398 149.152313,361.158051 
	C160.539154,361.158051 171.546295,361.864746 182.434280,361.025452 
	C215.015167,358.513916 235.786880,337.849426 237.276291,306.672363 
	C238.311584,285.000732 231.658798,266.859589 211.135971,256.334503 
	C199.203247,250.214798 186.151520,248.346252 172.918381,248.194443 
	C153.434113,247.970917 133.945358,248.131714 114.458527,248.147156 
	C113.019234,248.148300 111.580055,248.297073 110.245331,248.371399 
	C110.245331,305.827271 110.245331,362.869049 110.245331,420.164215 
	C118.544411,420.164215 126.519821,420.164215 135.491989,420.164185 
M382.957153,299.450195 
	C380.758392,301.482117 378.349457,303.330780 376.393494,305.574371 
	C357.183258,327.609222 353.992676,353.087433 362.423859,379.955048 
	C369.733978,403.250183 386.353455,417.823761 410.537964,422.133514 
	C435.125153,426.515076 456.157257,419.058228 471.809540,399.280151 
	C485.112183,382.471130 488.023315,362.720490 485.047180,342.028595 
	C477.878235,292.185303 424.022003,269.445709 382.957153,299.450195 
M281.675385,660.222656 
	C276.711945,662.548340 271.476105,664.430603 266.835236,667.281372 
	C251.904343,676.453064 246.918839,690.353394 249.264221,707.156677 
	C251.468781,722.951050 262.186523,734.756348 277.667084,738.356628 
	C294.600250,742.294800 309.100830,736.601379 322.220734,726.193359 
	C323.552765,725.136658 324.913300,724.115845 326.630127,722.793823 
	C327.547546,727.032959 328.162506,730.467285 329.091553,733.814453 
	C329.378632,734.848755 330.506958,736.420227 331.273590,736.434021 
	C341.179596,736.611328 351.089844,736.551331 361.257294,736.551331 
	C361.257294,710.723145 361.315674,685.574341 361.208984,660.426147 
	C361.187134,655.281128 360.833862,650.099609 360.141052,645.001831 
	C357.197083,623.338318 345.483337,608.635986 326.485718,604.291992 
	C300.076782,598.253296 276.208801,605.794312 253.251923,619.483826 
	C258.014771,628.244568 262.580841,636.643372 267.105835,644.966675 
	C272.433350,642.420288 277.164886,639.990234 282.031647,637.870605 
	C290.093140,634.359497 298.481293,632.432739 307.332123,633.812988 
	C316.624878,635.262024 322.233215,642.210327 321.842957,650.959473 
	C308.585754,653.969238 295.490265,656.942322 281.675385,660.222656 
M588.461731,739.567627 
	C605.346436,739.212585 620.722107,734.265381 634.912354,724.670593 
	C630.497559,716.672913 626.279053,709.030762 621.936646,701.164062 
	C609.938965,707.870178 597.957397,711.635376 584.623962,708.888245 
	C571.246887,706.132080 560.381226,694.392212 560.786133,682.461853 
	C586.380981,682.461853 611.990967,682.461853 637.464478,682.461853 
	C639.818909,676.039429 640.304321,663.950439 638.806885,651.984497 
	C633.475830,609.385986 590.907837,588.451416 553.988464,610.534912 
	C532.720093,623.256775 523.505615,643.159607 522.050232,667.233276 
	C519.533508,708.863525 547.005066,739.198792 588.461731,739.567627 
M612.974182,416.576172 
	C642.703125,430.941437 677.315857,419.583771 690.425415,407.874329 
	C686.230957,400.282745 682.014343,392.651001 677.800476,385.024292 
	C644.360046,403.853729 617.712524,388.239258 616.416870,365.987915 
	C642.207031,365.987915 667.977295,365.987915 694.109985,365.987915 
	C694.536987,362.036316 695.203735,358.423096 695.255737,354.801025 
	C695.339172,348.990021 695.348694,343.142120 694.810486,337.363739 
	C691.190430,298.499298 655.988831,275.773987 619.926453,289.509003 
	C594.552124,299.173309 581.706055,318.991089 578.453918,345.324554 
	C574.570923,376.766602 586.974792,402.405090 612.974182,416.576172 
M750.584778,613.917786 
	C746.294556,611.714478 742.172119,609.062134 737.685120,607.385376 
	C717.877258,599.983215 698.083923,599.380615 679.436646,610.447815 
	C656.230896,624.220337 654.800781,655.719604 676.559692,671.565369 
	C682.525269,675.909790 689.620605,678.760681 696.346252,681.986938 
	C702.633301,685.002869 709.228760,687.382996 715.477478,690.469849 
	C719.879150,692.644287 723.039917,696.074524 721.936401,701.638611 
	C720.863281,707.049866 716.870972,709.030273 711.984985,710.018188 
	C701.757812,712.085999 692.542175,709.069275 683.733398,704.337769 
	C679.706177,702.174683 675.926636,699.550415 671.857483,697.025269 
	C665.982605,705.177795 660.271912,713.102539 654.459290,721.168640 
	C663.618103,728.581116 673.543579,733.523804 684.374451,736.496582 
	C702.647522,741.512024 720.657410,741.065857 737.743347,732.106812 
	C751.472534,724.907776 758.440613,713.092773 758.784668,697.702332 
	C759.113342,682.997620 752.076172,672.156006 739.433350,665.166199 
	C733.356506,661.806519 726.725525,659.439453 720.311951,656.701477 
	C714.810486,654.352905 709.124512,652.391479 703.778625,649.738098 
	C699.903320,647.814575 697.026794,644.616150 697.892334,639.718628 
	C698.770569,634.748962 702.348145,632.631165 706.948914,631.703064 
	C715.818420,629.914062 723.734680,632.651489 731.327271,636.814758 
	C734.326538,638.459351 737.191956,640.347717 740.234680,642.195740 
	C746.122864,634.276123 751.746765,626.711914 757.610046,618.825806 
	C755.229431,617.158630 753.207703,615.742737 750.584778,613.917786 
M847.676697,351.499512 
	C847.760376,360.990112 847.640320,370.487701 847.966553,379.969940 
	C848.892822,406.891571 864.528259,422.511536 891.342529,423.289307 
	C901.830383,423.593445 912.089722,422.108124 922.124695,418.332489 
	C919.997620,408.694733 917.973328,399.522430 915.985291,390.514526 
	C912.134399,391.264038 908.909668,392.165680 905.628723,392.479950 
	C894.836487,393.513702 888.075195,387.860870 886.985535,377.104889 
	C886.818115,375.452179 886.748413,373.782837 886.746643,372.121094 
	C886.729126,356.130188 886.727966,340.139313 886.749573,324.148438 
	C886.751526,322.735687 886.948059,321.323242 887.084351,319.509399 
	C897.675720,319.509399 907.749573,319.509399 917.593262,319.509399 
	C917.593262,309.159760 917.593262,299.258514 917.593262,288.982758 
	C907.133179,288.982758 897.041565,288.982758 886.555420,288.982758 
	C886.555420,277.354584 886.555420,266.109833 886.555420,254.735016 
	C875.586975,254.735016 865.029358,254.735016 854.361694,254.735016 
	C852.808411,266.375427 851.297852,277.696014 849.779419,289.075409 
	C842.982666,289.619934 836.561401,290.134430 830.279419,290.637726 
	C830.279419,300.568756 830.279419,310.128693 830.279419,320.113800 
	C836.246826,320.113800 841.835815,320.113800 847.676758,320.113800 
	C847.676758,330.532440 847.676758,340.515961 847.676697,351.499512 
M779.589661,286.050110 
	C764.547546,286.690491 750.767273,291.067535 738.960938,300.559906 
	C720.630432,315.297791 713.970276,335.100281 714.478333,357.994507 
	C715.329651,396.362091 740.121887,422.262268 777.541260,423.269775 
	C794.235352,423.719208 809.321533,418.933533 822.426758,407.657349 
	C817.292175,399.063873 812.305664,390.718201 807.304504,382.348083 
	C803.781372,384.459259 800.775879,386.551788 797.528931,388.155396 
	C783.711792,394.979401 769.681030,391.821198 761.547913,380.211853 
	C752.182495,366.843262 751.992615,343.574066 760.956970,329.992950 
	C769.139526,317.596191 787.162598,313.009766 799.394714,322.928894 
	C800.377686,323.726013 801.479492,324.376587 802.702271,325.216217 
	C808.922974,316.721497 814.963318,308.473053 821.033325,300.184082 
	C809.023865,290.065216 795.669617,285.511810 779.589661,286.050110 
M551.596191,370.500244 
	C551.596191,343.555359 551.596191,316.610443 551.596191,289.491028 
	C538.413696,289.491028 525.726929,289.491028 512.734314,289.491028 
	C512.734314,291.627136 512.734314,293.440582 512.734314,295.254028 
	C512.734436,336.066406 512.773499,376.878845 512.681030,417.691010 
	C512.670532,422.325226 512.348022,427.046051 511.412445,431.570007 
	C510.071686,438.053101 505.883423,441.186462 499.226685,441.100311 
	C495.780640,441.055695 492.343719,440.307373 488.433746,439.818329 
	C486.175049,449.189270 483.901855,458.620422 481.337219,469.260681 
	C489.519379,470.200134 496.880463,471.672272 504.259583,471.768982 
	C522.644165,472.009949 538.612976,466.557587 546.124878,448.144348 
	C549.377869,440.170624 550.957214,431.116943 551.362976,422.463165 
	C552.157898,405.509155 551.596375,388.491577 551.596191,370.500244 
M263.789368,388.499908 
	C263.789368,398.932129 263.789368,409.364319 263.789368,419.789703 
	C277.122437,419.789703 289.832581,419.789703 302.843750,419.789703 
	C302.843750,417.770813 302.843750,416.128326 302.843750,414.485840 
	C302.843658,392.821442 302.843384,371.157074 302.843567,349.492676 
	C302.843689,332.754364 319.898651,318.015442 336.445679,320.488129 
	C339.492950,320.943542 342.515656,321.563324 345.673187,322.129364 
	C347.870270,310.728973 349.971222,299.827332 352.137878,288.584839 
	C341.364777,284.841248 331.060272,284.852783 320.953766,289.736969 
	C311.108276,294.494965 304.590942,302.771393 298.490021,312.546417 
	C297.418030,304.105316 296.486816,296.772552 295.552582,289.416016 
	C284.820221,289.416016 274.557404,289.416016 263.789337,289.416016 
	C263.789337,322.274506 263.789337,354.887207 263.789368,388.499908 
M821.606201,696.870117 
	C813.691528,690.067017 803.330139,688.553345 794.697388,692.939026 
	C786.258728,697.226196 781.246582,706.771301 781.990662,717.137817 
	C782.695435,726.957153 788.856445,735.239563 797.716980,738.279175 
	C807.752075,741.721680 818.906128,738.133240 824.679382,729.604980 
	C831.383118,719.702332 830.354126,706.766296 821.606201,696.870117 
M525.423767,269.418518 
	C529.214172,269.612122 533.072510,270.355347 536.782471,269.897369 
	C548.418945,268.460938 555.963806,258.770721 554.649109,247.547318 
	C553.436523,237.196320 545.801514,230.694672 533.514099,229.549530 
	C522.417480,228.515366 512.327209,235.369125 510.138794,245.427170 
	C507.773468,256.298035 513.197998,265.217285 525.423767,269.418518 
z"/>
<path fill="#FBFBFB" opacity="1.000000" stroke="none" 
	d="
M474.933899,711.937317 
	C480.294800,712.876587 485.303375,713.414062 490.072998,714.783752 
	C510.257568,720.580139 518.911255,738.126526 511.431671,757.829041 
	C506.901764,769.761719 497.970978,777.704285 486.705322,782.698975 
	C461.883972,793.703674 436.118866,795.140503 410.172913,787.541565 
	C403.894562,785.702820 397.540466,781.836548 392.876343,777.227661 
	C381.672394,766.156250 383.412231,748.620667 395.884308,737.935486 
	C398.382629,735.795044 401.198883,734.025696 404.325317,731.753235 
	C395.910278,725.693787 391.446136,717.725464 392.277344,707.432983 
	C393.088287,697.391174 399.135895,690.414917 406.320251,684.680603 
	C402.387848,679.807983 397.824066,675.488953 394.865692,670.261353 
	C380.272583,644.474670 393.903290,613.716553 423.591797,605.026062 
	C435.993927,601.395630 448.542664,601.262939 461.108917,604.510376 
	C463.173401,605.043945 465.364441,605.303284 467.499054,605.315063 
	C480.498566,605.386719 493.498688,605.350159 506.498596,605.349670 
	C508.114960,605.349670 509.731354,605.349670 511.555481,605.349670 
	C511.555481,615.031555 511.555481,624.121521 511.555481,633.783081 
	C504.855286,633.783081 498.312988,633.783081 492.990234,633.783081 
	C493.546204,642.299194 495.162964,650.408691 494.370789,658.275574 
	C492.522400,676.631470 480.085693,689.330322 459.750305,693.128601 
	C450.781830,694.803833 441.231781,694.259399 432.048615,693.492004 
	C427.833588,693.139709 425.438477,693.387756 423.874115,697.293823 
	C422.096741,701.732117 422.957703,706.448669 426.550140,708.439148 
	C428.948822,709.768250 431.821533,710.817383 434.524384,710.924438 
	C447.832397,711.451538 461.154480,711.622009 474.933899,711.937317 
M441.718018,741.562744 
	C436.923950,741.196472 432.133667,740.754089 427.333313,740.513367 
	C425.999817,740.446533 424.301331,740.549377 423.339386,741.301941 
	C415.290161,747.598206 415.797211,758.977844 424.964142,763.038818 
	C439.787140,769.605530 454.968781,769.468628 469.520203,761.756409 
	C475.019653,758.841675 477.369080,753.518738 476.055054,748.952454 
	C474.400116,743.201355 469.415161,742.277649 464.593018,741.975037 
	C457.307129,741.517761 449.983032,741.669556 441.718018,741.562744 
M427.346741,659.791382 
	C431.323669,668.328186 437.196411,672.068604 445.207031,671.166565 
	C453.510040,670.231628 459.156464,665.108337 460.384766,655.839355 
	C461.063904,650.714233 460.738464,645.150269 459.460297,640.142944 
	C457.534973,632.600342 451.488220,628.758850 443.805237,628.696594 
	C435.711578,628.630981 429.966705,632.420532 427.311401,639.880798 
	C425.063690,646.195740 425.210571,652.618958 427.346741,659.791382 
z"/>
<path fill="#FCFCFC" opacity="1.000000" stroke="none" 
	d="
M194.253235,566.781738 
	C202.173828,569.935669 210.358047,571.969910 217.047821,576.308411 
	C233.785355,587.163269 238.195618,604.204285 237.285416,622.949585 
	C235.838913,652.739868 217.444611,672.235718 186.774429,676.747009 
	C180.704376,677.639893 174.517868,677.875244 168.373688,678.092407 
	C162.087189,678.314514 155.786697,678.141541 148.958664,678.141541 
	C148.958664,688.192200 148.958664,697.801392 148.958664,707.410645 
	C148.958664,716.899719 148.958664,726.388794 148.958664,736.221436 
	C135.965591,736.221436 123.230019,736.221436 110.203964,736.221436 
	C110.203964,679.064270 110.203964,621.985657 110.200562,564.905151 
	C110.477524,564.731812 110.758667,564.408936 111.038162,564.410339 
	C134.357727,564.529297 157.678360,564.583008 180.995468,564.897644 
	C185.283203,564.955505 189.556549,566.079224 194.253235,566.781738 
M165.169754,595.331787 
	C159.884079,595.331787 154.598389,595.331787 149.353149,595.331787 
	C149.353149,612.904968 149.353149,629.928223 149.353149,646.776428 
	C157.743576,646.776428 165.747498,647.149902 173.703995,646.694458 
	C187.848892,645.884766 196.281250,638.653564 198.712524,625.986877 
	C201.789474,609.956360 194.561584,599.232605 178.521561,596.397156 
	C174.447800,595.677063 170.247604,595.672424 165.169754,595.331787 
z"/>
<path fill="#FDFDFD" opacity="1.000000" stroke="none" 
	d="
M134.993622,420.164185 
	C126.519821,420.164215 118.544411,420.164215 110.245331,420.164215 
	C110.245331,362.869049 110.245331,305.827271 110.245331,248.371399 
	C111.580055,248.297073 113.019234,248.148300 114.458527,248.147156 
	C133.945358,248.131714 153.434113,247.970917 172.918381,248.194443 
	C186.151520,248.346252 199.203247,250.214798 211.135971,256.334503 
	C231.658798,266.859589 238.311584,285.000732 237.276291,306.672363 
	C235.786880,337.849426 215.015167,358.513916 182.434280,361.025452 
	C171.546295,361.864746 160.539154,361.158051 149.152313,361.158051 
	C149.152313,381.276398 149.152313,400.347412 149.152313,420.164185 
	C144.317017,420.164185 139.904510,420.164185 134.993622,420.164185 
M148.948898,316.494110 
	C148.948898,321.111481 148.948898,325.728851 148.948898,330.857758 
	C152.676926,330.857758 155.983841,331.100372 159.243286,330.810089 
	C167.468613,330.077637 175.953384,330.132050 183.817383,327.981415 
	C194.814102,324.974060 199.708862,315.216461 199.076172,301.328369 
	C198.582489,290.491943 193.173828,283.073334 181.968491,281.117828 
	C171.298111,279.255707 160.302597,279.256714 148.948898,278.400787 
	C148.948898,291.612976 148.948898,303.554321 148.948898,316.494110 
z"/>
<path fill="#FCFCFC" opacity="1.000000" stroke="none" 
	d="
M383.242615,299.235016 
	C424.022003,269.445709 477.878235,292.185303 485.047180,342.028595 
	C488.023315,362.720490 485.112183,382.471130 471.809540,399.280151 
	C456.157257,419.058228 435.125153,426.515076 410.537964,422.133514 
	C386.353455,417.823761 369.733978,403.250183 362.423859,379.955048 
	C353.992676,353.087433 357.183258,327.609222 376.393494,305.574371 
	C378.349457,303.330780 380.758392,301.482117 383.242615,299.235016 
M402.518158,331.130371 
	C396.922791,345.824768 396.760681,360.738556 401.475952,375.583344 
	C404.854248,386.219025 412.685913,391.954437 422.305389,391.902618 
	C431.699097,391.852020 439.399475,386.213379 442.819275,375.812378 
	C447.466370,361.678436 447.452637,347.316528 442.633209,333.201233 
	C439.551880,324.176514 433.466644,318.098114 423.428284,317.565735 
	C413.714172,317.050568 407.007263,321.840485 402.518158,331.130371 
z"/>
<path fill="#FCFCFC" opacity="1.000000" stroke="none" 
	d="
M282.035095,660.068970 
	C295.490265,656.942322 308.585754,653.969238 321.842957,650.959473 
	C322.233215,642.210327 316.624878,635.262024 307.332123,633.812988 
	C298.481293,632.432739 290.093140,634.359497 282.031647,637.870605 
	C277.164886,639.990234 272.433350,642.420288 267.105835,644.966675 
	C262.580841,636.643372 258.014771,628.244568 253.251923,619.483826 
	C276.208801,605.794312 300.076782,598.253296 326.485718,604.291992 
	C345.483337,608.635986 357.197083,623.338318 360.141052,645.001831 
	C360.833862,650.099609 361.187134,655.281128 361.208984,660.426147 
	C361.315674,685.574341 361.257294,710.723145 361.257294,736.551331 
	C351.089844,736.551331 341.179596,736.611328 331.273590,736.434021 
	C330.506958,736.420227 329.378632,734.848755 329.091553,733.814453 
	C328.162506,730.467285 327.547546,727.032959 326.630127,722.793823 
	C324.913300,724.115845 323.552765,725.136658 322.220734,726.193359 
	C309.100830,736.601379 294.600250,742.294800 277.667084,738.356628 
	C262.186523,734.756348 251.468781,722.951050 249.264221,707.156677 
	C246.918839,690.353394 251.904343,676.453064 266.835236,667.281372 
	C271.476105,664.430603 276.711945,662.548340 282.035095,660.068970 
M301.479584,709.162415 
	C309.677307,709.400330 315.491180,704.762207 320.945007,699.508362 
	C321.669220,698.810791 322.140503,697.506226 322.156677,696.473877 
	C322.262634,689.703369 322.211273,682.930420 322.211273,675.720032 
	C311.892487,677.141724 302.162506,678.844543 293.596069,684.351562 
	C287.408539,688.329102 284.834564,694.506470 286.547485,700.482422 
	C288.199249,706.244995 292.324677,708.796692 301.479584,709.162415 
z"/>
<path fill="#FCFCFC" opacity="1.000000" stroke="none" 
	d="
M588.002075,739.567749 
	C547.005066,739.198792 519.533508,708.863525 522.050232,667.233276 
	C523.505615,643.159607 532.720093,623.256775 553.988464,610.534912 
	C590.907837,588.451416 633.475830,609.385986 638.806885,651.984497 
	C640.304321,663.950439 639.818909,676.039429 637.464478,682.461853 
	C611.990967,682.461853 586.380981,682.461853 560.786133,682.461853 
	C560.381226,694.392212 571.246887,706.132080 584.623962,708.888245 
	C597.957397,711.635376 609.938965,707.870178 621.936646,701.164062 
	C626.279053,709.030762 630.497559,716.672913 634.912354,724.670593 
	C620.722107,734.265381 605.346436,739.212585 588.002075,739.567749 
M586.499512,656.427551 
	C592.950317,656.427551 599.401123,656.427551 605.804810,656.427551 
	C606.833435,642.118103 599.113708,632.615967 586.475769,632.089966 
	C572.046143,631.489441 560.093933,642.353638 560.152954,656.427551 
	C568.597595,656.427551 577.048645,656.427551 586.499512,656.427551 
z"/>
<path fill="#FCFCFC" opacity="1.000000" stroke="none" 
	d="
M612.637451,416.415558 
	C586.974792,402.405090 574.570923,376.766602 578.453918,345.324554 
	C581.706055,318.991089 594.552124,299.173309 619.926453,289.509003 
	C655.988831,275.773987 691.190430,298.499298 694.810486,337.363739 
	C695.348694,343.142120 695.339172,348.990021 695.255737,354.801025 
	C695.203735,358.423096 694.536987,362.036316 694.109985,365.987915 
	C667.977295,365.987915 642.207031,365.987915 616.416870,365.987915 
	C617.712524,388.239258 644.360046,403.853729 677.800476,385.024292 
	C682.014343,392.651001 686.230957,400.282745 690.425415,407.874329 
	C677.315857,419.583771 642.703125,430.941437 612.637451,416.415558 
M659.311768,326.403870 
	C654.349854,317.683319 645.411926,313.971649 635.002686,316.309021 
	C624.711060,318.619965 616.694946,328.396118 615.772461,339.941284 
	C631.171265,339.941284 646.553162,339.941284 662.794250,339.941284 
	C661.682983,335.345367 660.683289,331.211060 659.311768,326.403870 
z"/>
<path fill="#FCFCFC" opacity="1.000000" stroke="none" 
	d="
M750.885376,614.122314 
	C753.207703,615.742737 755.229431,617.158630 757.610046,618.825806 
	C751.746765,626.711914 746.122864,634.276123 740.234680,642.195740 
	C737.191956,640.347717 734.326538,638.459351 731.327271,636.814758 
	C723.734680,632.651489 715.818420,629.914062 706.948914,631.703064 
	C702.348145,632.631165 698.770569,634.748962 697.892334,639.718628 
	C697.026794,644.616150 699.903320,647.814575 703.778625,649.738098 
	C709.124512,652.391479 714.810486,654.352905 720.311951,656.701477 
	C726.725525,659.439453 733.356506,661.806519 739.433350,665.166199 
	C752.076172,672.156006 759.113342,682.997620 758.784668,697.702332 
	C758.440613,713.092773 751.472534,724.907776 737.743347,732.106812 
	C720.657410,741.065857 702.647522,741.512024 684.374451,736.496582 
	C673.543579,733.523804 663.618103,728.581116 654.459290,721.168640 
	C660.271912,713.102539 665.982605,705.177795 671.857483,697.025269 
	C675.926636,699.550415 679.706177,702.174683 683.733398,704.337769 
	C692.542175,709.069275 701.757812,712.085999 711.984985,710.018188 
	C716.870972,709.030273 720.863281,707.049866 721.936401,701.638611 
	C723.039917,696.074524 719.879150,692.644287 715.477478,690.469849 
	C709.228760,687.382996 702.633301,685.002869 696.346252,681.986938 
	C689.620605,678.760681 682.525269,675.909790 676.559692,671.565369 
	C654.800781,655.719604 656.230896,624.220337 679.436646,610.447815 
	C698.083923,599.380615 717.877258,599.983215 737.685120,607.385376 
	C742.172119,609.062134 746.294556,611.714478 750.885376,614.122314 
z"/>
<path fill="#FCFCFC" opacity="1.000000" stroke="none" 
	d="
M847.676758,350.999481 
	C847.676758,340.515961 847.676758,330.532440 847.676758,320.113800 
	C841.835815,320.113800 836.246826,320.113800 830.279419,320.113800 
	C830.279419,310.128693 830.279419,300.568756 830.279419,290.637726 
	C836.561401,290.134430 842.982666,289.619934 849.779419,289.075409 
	C851.297852,277.696014 852.808411,266.375427 854.361694,254.735016 
	C865.029358,254.735016 875.586975,254.735016 886.555420,254.735016 
	C886.555420,266.109833 886.555420,277.354584 886.555420,288.982758 
	C897.041565,288.982758 907.133179,288.982758 917.593262,288.982758 
	C917.593262,299.258514 917.593262,309.159760 917.593262,319.509399 
	C907.749573,319.509399 897.675720,319.509399 887.084351,319.509399 
	C886.948059,321.323242 886.751526,322.735687 886.749573,324.148438 
	C886.727966,340.139313 886.729126,356.130188 886.746643,372.121094 
	C886.748413,373.782837 886.818115,375.452179 886.985535,377.104889 
	C888.075195,387.860870 894.836487,393.513702 905.628723,392.479950 
	C908.909668,392.165680 912.134399,391.264038 915.985291,390.514526 
	C917.973328,399.522430 919.997620,408.694733 922.124695,418.332489 
	C912.089722,422.108124 901.830383,423.593445 891.342529,423.289307 
	C864.528259,422.511536 848.892822,406.891571 847.966553,379.969940 
	C847.640320,370.487701 847.760376,360.990112 847.676758,350.999481 
z"/>
<path fill="#FCFCFC" opacity="1.000000" stroke="none" 
	d="
M780.071289,286.049164 
	C795.669617,285.511810 809.023865,290.065216 821.033325,300.184082 
	C814.963318,308.473053 808.922974,316.721497 802.702271,325.216217 
	C801.479492,324.376587 800.377686,323.726013 799.394714,322.928894 
	C787.162598,313.009766 769.139526,317.596191 760.956970,329.992950 
	C751.992615,343.574066 752.182495,366.843262 761.547913,380.211853 
	C769.681030,391.821198 783.711792,394.979401 797.528931,388.155396 
	C800.775879,386.551788 803.781372,384.459259 807.304504,382.348083 
	C812.305664,390.718201 817.292175,399.063873 822.426758,407.657349 
	C809.321533,418.933533 794.235352,423.719208 777.541260,423.269775 
	C740.121887,422.262268 715.329651,396.362091 714.478333,357.994507 
	C713.970276,335.100281 720.630432,315.297791 738.960938,300.559906 
	C750.767273,291.067535 764.547546,286.690491 780.071289,286.049164 
z"/>
<path fill="#FBFBFB" opacity="1.000000" stroke="none" 
	d="
M551.596191,371.000275 
	C551.596375,388.491577 552.157898,405.509155 551.362976,422.463165 
	C550.957214,431.116943 549.377869,440.170624 546.124878,448.144348 
	C538.612976,466.557587 522.644165,472.009949 504.259583,471.768982 
	C496.880463,471.672272 489.519379,470.200134 481.337219,469.260681 
	C483.901855,458.620422 486.175049,449.189270 488.433746,439.818329 
	C492.343719,440.307373 495.780640,441.055695 499.226685,441.100311 
	C505.883423,441.186462 510.071686,438.053101 511.412445,431.570007 
	C512.348022,427.046051 512.670532,422.325226 512.681030,417.691010 
	C512.773499,376.878845 512.734436,336.066406 512.734314,295.254028 
	C512.734314,293.440582 512.734314,291.627136 512.734314,289.491028 
	C525.726929,289.491028 538.413696,289.491028 551.596191,289.491028 
	C551.596191,316.610443 551.596191,343.555359 551.596191,371.000275 
z"/>
<path fill="#FCFCFC" opacity="1.000000" stroke="none" 
	d="
M263.789368,387.999878 
	C263.789337,354.887207 263.789337,322.274506 263.789337,289.416016 
	C274.557404,289.416016 284.820221,289.416016 295.552582,289.416016 
	C296.486816,296.772552 297.418030,304.105316 298.490021,312.546417 
	C304.590942,302.771393 311.108276,294.494965 320.953766,289.736969 
	C331.060272,284.852783 341.364777,284.841248 352.137878,288.584839 
	C349.971222,299.827332 347.870270,310.728973 345.673187,322.129364 
	C342.515656,321.563324 339.492950,320.943542 336.445679,320.488129 
	C319.898651,318.015442 302.843689,332.754364 302.843567,349.492676 
	C302.843384,371.157074 302.843658,392.821442 302.843750,414.485840 
	C302.843750,416.128326 302.843750,417.770813 302.843750,419.789703 
	C289.832581,419.789703 277.122437,419.789703 263.789368,419.789703 
	C263.789368,409.364319 263.789368,398.932129 263.789368,387.999878 
z"/>
<path fill="#FCFCFC" opacity="1.000000" stroke="none" 
	d="
M821.861023,697.122925 
	C830.354126,706.766296 831.383118,719.702332 824.679382,729.604980 
	C818.906128,738.133240 807.752075,741.721680 797.716980,738.279175 
	C788.856445,735.239563 782.695435,726.957153 781.990662,717.137817 
	C781.246582,706.771301 786.258728,697.226196 794.697388,692.939026 
	C803.330139,688.553345 813.691528,690.067017 821.861023,697.122925 
z"/>
<path fill="#FBFBFB" opacity="1.000000" stroke="none" 
	d="
M525.016235,269.318970 
	C513.197998,265.217285 507.773468,256.298035 510.138794,245.427170 
	C512.327209,235.369125 522.417480,228.515366 533.514099,229.549530 
	C545.801514,230.694672 553.436523,237.196320 554.649109,247.547318 
	C555.963806,258.770721 548.418945,268.460938 536.782471,269.897369 
	C533.072510,270.355347 529.214172,269.612122 525.016235,269.318970 
z"/>
<path fill="#040404" opacity="1.000000" stroke="none" 
	d="
M442.196594,741.562622 
	C449.983032,741.669556 457.307129,741.517761 464.593018,741.975037 
	C469.415161,742.277649 474.400116,743.201355 476.055054,748.952454 
	C477.369080,753.518738 475.019653,758.841675 469.520203,761.756409 
	C454.968781,769.468628 439.787140,769.605530 424.964142,763.038818 
	C415.797211,758.977844 415.290161,747.598206 423.339386,741.301941 
	C424.301331,740.549377 425.999817,740.446533 427.333313,740.513367 
	C432.133667,740.754089 436.923950,741.196472 442.196594,741.562622 
z"/>
<path fill="#040404" opacity="1.000000" stroke="none" 
	d="
M427.224854,659.406006 
	C425.210571,652.618958 425.063690,646.195740 427.311401,639.880798 
	C429.966705,632.420532 435.711578,628.630981 443.805237,628.696594 
	C451.488220,628.758850 457.534973,632.600342 459.460297,640.142944 
	C460.738464,645.150269 461.063904,650.714233 460.384766,655.839355 
	C459.156464,665.108337 453.510040,670.231628 445.207031,671.166565 
	C437.196411,672.068604 431.323669,668.328186 427.224854,659.406006 
z"/>
<path fill="#030303" opacity="1.000000" stroke="none" 
	d="
M165.637634,595.335388 
	C170.247604,595.672424 174.447800,595.677063 178.521561,596.397156 
	C194.561584,599.232605 201.789474,609.956360 198.712524,625.986877 
	C196.281250,638.653564 187.848892,645.884766 173.703995,646.694458 
	C165.747498,647.149902 157.743576,646.776428 149.353149,646.776428 
	C149.353149,629.928223 149.353149,612.904968 149.353149,595.331787 
	C154.598389,595.331787 159.884079,595.331787 165.637634,595.335388 
z"/>
<path fill="#030303" opacity="1.000000" stroke="none" 
	d="
M148.948898,315.994873 
	C148.948898,303.554321 148.948898,291.612976 148.948898,278.400787 
	C160.302597,279.256714 171.298111,279.255707 181.968491,281.117828 
	C193.173828,283.073334 198.582489,290.491943 199.076172,301.328369 
	C199.708862,315.216461 194.814102,324.974060 183.817383,327.981415 
	C175.953384,330.132050 167.468613,330.077637 159.243286,330.810089 
	C155.983841,331.100372 152.676926,330.857758 148.948898,330.857758 
	C148.948898,325.728851 148.948898,321.111481 148.948898,315.994873 
z"/>
<path fill="#040404" opacity="1.000000" stroke="none" 
	d="
M402.681946,330.790039 
	C407.007263,321.840485 413.714172,317.050568 423.428284,317.565735 
	C433.466644,318.098114 439.551880,324.176514 442.633209,333.201233 
	C447.452637,347.316528 447.466370,361.678436 442.819275,375.812378 
	C439.399475,386.213379 431.699097,391.852020 422.305389,391.902618 
	C412.685913,391.954437 404.854248,386.219025 401.475952,375.583344 
	C396.760681,360.738556 396.922791,345.824768 402.681946,330.790039 
z"/>
<path fill="#040404" opacity="1.000000" stroke="none" 
	d="
M301.029175,709.161865 
	C292.324677,708.796692 288.199249,706.244995 286.547485,700.482422 
	C284.834564,694.506470 287.408539,688.329102 293.596069,684.351562 
	C302.162506,678.844543 311.892487,677.141724 322.211273,675.720032 
	C322.211273,682.930420 322.262634,689.703369 322.156677,696.473877 
	C322.140503,697.506226 321.669220,698.810791 320.945007,699.508362 
	C315.491180,704.762207 309.677307,709.400330 301.029175,709.161865 
z"/>
<path fill="#040404" opacity="1.000000" stroke="none" 
	d="
M585.999634,656.427551 
	C577.048645,656.427551 568.597595,656.427551 560.152954,656.427551 
	C560.093933,642.353638 572.046143,631.489441 586.475769,632.089966 
	C599.113708,632.615967 606.833435,642.118103 605.804810,656.427551 
	C599.401123,656.427551 592.950317,656.427551 585.999634,656.427551 
z"/>
<path fill="#040404" opacity="1.000000" stroke="none" 
	d="
M659.497681,326.740295 
	C660.683289,331.211060 661.682983,335.345367 662.794250,339.941284 
	C646.553162,339.941284 631.171265,339.941284 615.772461,339.941284 
	C616.694946,328.396118 624.711060,318.619965 635.002686,316.309021 
	C645.411926,313.971649 654.349854,317.683319 659.497681,326.740295 
z"/>
</svg>